<svg xmlns="http://www.w3.org/2000/svg" width="64" height="64" viewBox="0 0 64 64"><path fill="#999" d="M46.009 22h-16.018c-1.093 0-1.991.895-1.991 2v4h-7.007c-1.093 0-1.993.893-1.993 1.994v12.012c0 1.1.892 1.994 1.993 1.994h25.013c1.094 0 1.994-.893 1.994-1.994v-18.006c0-1.11-.891-2-1.991-2zm.991 11.497v8.509c0 .548-.446.994-.993.994h-25.014c-.547 0-.993-.446-.993-.994v-12.012c0-.548.446-.994.993-.994h7.007c.552 0 1-.448 1-1v-4c0-.551.444-1 .991-1h16.018c.547 0 .991.449.991 1v9.497zM32.469 37.654l-1.731-5.395h-1.738v6.741h1.092v-5.688l1.843 5.688h.999l1.949-5.427v5.427h1.117v-6.741h-1.607zM39.353 32.383c.677-.487 1.111-.848 1.301-1.085.25-.317.375-.654.375-1.009 0-.36-.149-.664-.448-.914s-.766-.375-1.405-.375c-.567 0-1.002.111-1.304.333s-.515.568-.638 1.038l.958.102c.089-.284.202-.475.34-.574s.346-.149.625-.149c.288 0 .506.066.654.197s.222.298.222.501c0 .182-.078.36-.235.533-.114.127-.476.412-1.085.854s-1.047.845-1.314 1.209c-.174.241-.273.482-.298.724h3.955v-.768h-2.45c.147-.153.396-.359.747-.617z"/></svg>